# xmcd
#
# Track frame offsets: 
#        150
#        2402
#        33932
#        76245
#        100382
#        141535
#        182200
#        224227
#        263047
#
# Disc length: 4001 seconds
#
# Revision: 2
# Processed by: cddbd v1.5.2PL0 Copyright (c) Steve Scherf et al.
# Submitted via: ExactAudioCopy v0.99pb5
#
DISCID=7d0f9f09
DTITLE=Andy Bey - Ain't Necessarily So
DYEAR=2008
DGENRE=Jazz
TTITLE0=Intro
TTITLE1=Ain't Necessarily So
TTITLE2=Hey, Love
TTITLE3=All the Things You Are
TTITLE4=I Let a Song Go Out of My Heart
TTITLE5=If I Should Lose You
TTITLE6=On Second Thought
TTITLE7=Brother, Can You Spare a Dime?
TTITLE8=Someone to Watch Over Me
EXTD=
EXTT0=
EXTT1=
EXTT2=
EXTT3=
EXTT4=
EXTT5=
EXTT6=
EXTT7=
EXTT8=
PLAYORDER=
